HIERARCHY
ROOT Hips
{
	OFFSET -14.64140 90.27770 -84.91600
	CHANNELS 6 Xposition Yposition Zposition Zrotation Xrotation Yrotation
	JOINT Spine
	{
		OFFSET 0.00000 13.20850 -1.60436
		CHANNELS 3 Zrotation Xrotation Yrotation
		JOINT Spine1
		{
			OFFSET 0.00000 8.61716 0.00000
			CHANNELS 3 Zrotation Xrotation Yrotation
			JOINT Spine2
			{
				OFFSET 0.00000 8.61717 0.00000
				CHANNELS 3 Zrotation Xrotation Yrotation
				JOINT Spine3
				{
					OFFSET 0.00000 8.61717 0.00000
					CHANNELS 3 Zrotation Xrotation Yrotation
					JOINT Neck
					{
						OFFSET 0.00000 11.07920 1.10792
						CHANNELS 3 Zrotation Xrotation Yrotation
						JOINT Neck1
						{
							OFFSET 0.00000 7.08032 0.00000
							CHANNELS 3 Zrotation Xrotation Yrotation
							JOINT Head
							{
								OFFSET 0.00000 7.08031 0.00000
								CHANNELS 3 Zrotation Xrotation Yrotation
								End site
								{
									OFFSET 0.00000 0.00000 0.00000
								}
							}
						}
					}
					JOINT RightShoulder
					{
						OFFSET -0.01000 7.91373 5.19711
						CHANNELS 3 Zrotation Xrotation Yrotation
						JOINT RightArm
						{
							OFFSET -18.41580 0.00000 0.00000
							CHANNELS 3 Zrotation Xrotation Yrotation
							JOINT RightForeArm
							{
								OFFSET -29.11090 0.00000 0.00000
								CHANNELS 3 Zrotation Xrotation Yrotation
								JOINT RightHand
								{
									OFFSET -24.65040 0.00000 0.00000
									CHANNELS 3 Zrotation Xrotation Yrotation
									JOINT RightHandThumb1
									{
										OFFSET -5.35114 -0.85590 3.97906
										CHANNELS 3 Zrotation Xrotation Yrotation
										JOINT RightHandThumb2
										{
											OFFSET -4.52789 0.00000 0.00000
											CHANNELS 3 Zrotation Xrotation Yrotation
											JOINT RightHandThumb3
											{
												OFFSET -2.46976 0.00000 0.00000
												CHANNELS 3 Zrotation Xrotation Yrotation
												End site
												{
													OFFSET 0.00000 0.00000 0.00000
												}
											}
										}
									}
									JOINT RightHandIndex1
									{
										OFFSET -14.26970 0.00000 2.88139
										CHANNELS 3 Zrotation Xrotation Yrotation
										JOINT RightHandIndex2
										{
											OFFSET -5.48836 0.00000 0.00000
											CHANNELS 3 Zrotation Xrotation Yrotation
											JOINT RightHandIndex3
											{
												OFFSET -3.01859 0.00000 0.00000
												CHANNELS 3 Zrotation Xrotation Yrotation
												End site
												{
													OFFSET 0.00000 0.00000 0.00000
												}
											}
										}
									}
									JOINT RightHandMiddle1
									{
										OFFSET -14.26970 0.00000 -0.09147
										CHANNELS 3 Zrotation Xrotation Yrotation
										JOINT RightHandMiddle2
										{
											OFFSET -6.17441 0.00000 0.00000
											CHANNELS 3 Zrotation Xrotation Yrotation
											JOINT RightHandMiddle3
											{
												OFFSET -3.56743 0.00000 0.00000
												CHANNELS 3 Zrotation Xrotation Yrotation
												End site
												{
													OFFSET 0.00000 0.00000 0.00000
												}
											}
										}
									}
									JOINT RightHandRing1
									{
										OFFSET -12.69180 0.00000 -3.06433
										CHANNELS 3 Zrotation Xrotation Yrotation
										JOINT RightHandRing2
										{
											OFFSET -5.62556 0.00000 0.00000
											CHANNELS 3 Zrotation Xrotation Yrotation
											JOINT RightHandRing3
											{
												OFFSET -3.56744 0.00000 0.00000
												CHANNELS 3 Zrotation Xrotation Yrotation
												End site
												{
													OFFSET 0.00000 0.00000 0.00000
												}
											}
										}
									}
									JOINT RightHandPinky1
									{
										OFFSET -11.11390 0.00000 -6.03719
										CHANNELS 3 Zrotation Xrotation Yrotation
										JOINT RightHandPinky2
										{
											OFFSET -4.52789 0.00000 0.00000
											CHANNELS 3 Zrotation Xrotation Yrotation
											JOINT RightHandPinky3
											{
												OFFSET -2.46976 0.00000 0.00000
												CHANNELS 3 Zrotation Xrotation Yrotation
												End site
												{
													OFFSET 0.00000 0.00000 0.00000
												}
											}
										}
									}
								}
							}
						}
					}
					JOINT LeftShoulder
					{
						OFFSET 0.01000 7.91373 5.19711
						CHANNELS 3 Zrotation Xrotation Yrotation
						JOINT LeftArm
						{
							OFFSET 18.41580 0.00000 0.00000
							CHANNELS 3 Zrotation Xrotation Yrotation
							JOINT LeftForeArm
							{
								OFFSET 29.11090 0.00000 0.00000
								CHANNELS 3 Zrotation Xrotation Yrotation
								JOINT LeftHand
								{
									OFFSET 24.65040 0.00000 0.00000
									CHANNELS 3 Zrotation Xrotation Yrotation
									JOINT LeftHandThumb1
									{
										OFFSET 5.35114 -0.85590 3.97906
										CHANNELS 3 Zrotation Xrotation Yrotation
										JOINT LeftHandThumb2
										{
											OFFSET 4.52789 0.00000 0.00000
											CHANNELS 3 Zrotation Xrotation Yrotation
											JOINT LeftHandThumb3
											{
												OFFSET 2.46977 0.00000 0.00000
												CHANNELS 3 Zrotation Xrotation Yrotation
												End site
												{
													OFFSET 0.00000 0.00000 0.00000
												}
											}
										}
									}
									JOINT LeftHandIndex1
									{
										OFFSET 14.26970 0.00000 2.88139
										CHANNELS 3 Zrotation Xrotation Yrotation
										JOINT LeftHandIndex2
										{
											OFFSET 5.48836 0.00000 0.00000
											CHANNELS 3 Zrotation Xrotation Yrotation
											JOINT LeftHandIndex3
											{
												OFFSET 3.01859 0.00000 0.00000
												CHANNELS 3 Zrotation Xrotation Yrotation
												End site
												{
													OFFSET 0.00000 0.00000 0.00000
												}
											}
										}
									}
									JOINT LeftHandMiddle1
									{
										OFFSET 14.26970 0.00000 -0.09147
										CHANNELS 3 Zrotation Xrotation Yrotation
										JOINT LeftHandMiddle2
										{
											OFFSET 6.17440 0.00000 0.00000
											CHANNELS 3 Zrotation Xrotation Yrotation
											JOINT LeftHandMiddle3
											{
												OFFSET 3.56744 0.00000 0.00000
												CHANNELS 3 Zrotation Xrotation Yrotation
												End site
												{
													OFFSET 0.00000 0.00000 0.00000
												}
											}
										}
									}
									JOINT LeftHandRing1
									{
										OFFSET 12.69180 0.00000 -3.06433
										CHANNELS 3 Zrotation Xrotation Yrotation
										JOINT LeftHandRing2
										{
											OFFSET 5.62556 0.00000 0.00000
											CHANNELS 3 Zrotation Xrotation Yrotation
											JOINT LeftHandRing3
											{
												OFFSET 3.56744 0.00000 0.00000
												CHANNELS 3 Zrotation Xrotation Yrotation
												End site
												{
													OFFSET 0.00000 0.00000 0.00000
												}
											}
										}
									}
									JOINT LeftHandPinky1
									{
										OFFSET 11.11390 0.00000 -6.03719
										CHANNELS 3 Zrotation Xrotation Yrotation
										JOINT LeftHandPinky2
										{
											OFFSET 4.52789 0.00000 0.00000
											CHANNELS 3 Zrotation Xrotation Yrotation
											JOINT LeftHandPinky3
											{
												OFFSET 2.46976 0.00000 0.00000
												CHANNELS 3 Zrotation Xrotation Yrotation
												End site
												{
													OFFSET 0.00000 0.00000 0.00000
												}
											}
										}
									}
								}
							}
						}
					}
					JOINT pCube4
					{
						OFFSET 0.00000 10.91090 1.10792
						CHANNELS 3 Zrotation Xrotation Yrotation
						End site
						{
							OFFSET 0.00000 0.00000 0.00000
						}
					}
				}
			}
		}
	}
	JOINT RightUpLeg
	{
		OFFSET -9.98441 0.00000 0.00000
		CHANNELS 3 Zrotation Xrotation Yrotation
		JOINT RightLeg
		{
			OFFSET 0.00000 -42.11790 0.00000
			CHANNELS 3 Zrotation Xrotation Yrotation
			JOINT RightFoot
			{
				OFFSET 0.00000 -45.00020 -0.00001
				CHANNELS 3 Zrotation Xrotation Yrotation
				JOINT RightForeFoot
				{
					OFFSET 0.00000 -3.74820 0.00000
					CHANNELS 3 Zrotation Xrotation Yrotation
					JOINT RightToeBase
					{
						OFFSET 0.00000 0.06325 14.43120
						CHANNELS 3 Zrotation Xrotation Yrotation
						End site
						{
							OFFSET 0.00000 0.00000 0.00000
						}
					}
				}
			}
		}
	}
	JOINT LeftUpLeg
	{
		OFFSET 9.98441 0.00000 0.00000
		CHANNELS 3 Zrotation Xrotation Yrotation
		JOINT LeftLeg
		{
			OFFSET 0.00000 -42.11800 0.00000
			CHANNELS 3 Zrotation Xrotation Yrotation
			JOINT LeftFoot
			{
				OFFSET 0.00000 -45.00070 0.00000
				CHANNELS 3 Zrotation Xrotation Yrotation
				JOINT LeftForeFoot
				{
					OFFSET 0.00000 -3.74824 0.00000
					CHANNELS 3 Zrotation Xrotation Yrotation
					JOINT LeftToeBase
					{
						OFFSET 0.00000 0.06325 14.43110
						CHANNELS 3 Zrotation Xrotation Yrotation
						End site
						{
							OFFSET 0.00000 0.00000 0.00000
						}
					}
				}
			}
		}
	}
}
MOTION
Frames: 4
Frame Time: 0.050000
-0.0014848381639865308 0.021732836426615894 -0.04313395810408336 -0.04803629581263405 0.009601910609329974 -0.013351189119856235 -1.987400628274374 1.2618719446614703 -1.0532727117077416 -0.9193201980942889 3.6865194742490353 0.3924071844017114 -1.1127539101059167 -1.4853739587656292 -1.0286554007102662 0.5881314444412228 0.3368338176164511 -0.808951098350963 0.5462262535356008 11.329706603769475 -2.1637293830261397 0.3268188364296632 -0.9532846650813332 -6.140336434117578 1.1714971420853508 -16.47177727902119 -0.5688226133534143 -3.0154045231096376 1.2404411214967843 -15.328701065659825 73.2135915954495 19.474860716629706 0.934911461400445 1.3544520692581714 5.522467107512667 44.876328130160985 21.341832543798912 -0.09709666056508748 -4.337490003719729 4.527337279808041 -0.1342489421868786 -1.6108578300076923 -0.01997611046318352 -0.006896398743985033 -56.266730586394836 -0.009367673760146867 -0.023628668463353954 -56.279119326330765 -38.769551585590165 -0.02374419717171232 0.02977670952943984 -0.002709199998198748 -0.028603923165064164 -0.00015788017094086872 0.004412718355430457 -0.007603617396211621 0.011744514200005144 -36.73067702510367 0.01830572601938869 0.04129484228762309 0.004759848700964492 -0.010471830311058056 -0.03286443878471075 0.022760768831966198 0.025397866984135743 0.03824224618441368 -19.734544331302168 0.020432188343675262 0.0031143853377885024 -0.01850390799691019 -0.005270923911328932 0.04520920502594237 0.02589271065898372 0.0187507697975339 0.04835103141135616 24.051978206060422 0.03393703501495598 -0.013341263021004201 28.876804873301197 0.0006504657889422323 -0.042293889329649184 28.906092948911926 -0.019362143862337363 -0.026358499498107733 2.9918738885919844 0.9146691549655924 12.999675520138378 -69.38855280955177 28.596887362086708 -5.1273331684217505 4.15022400968453 -7.971580356884451 -49.10748727794597 -12.057437846451036 2.3958276920993518 -0.1788550459958125 -0.46486163977130834 0.04699348667152956 -8.139833962184593 -0.009363368006237407 0.04466821809126392 44.57589775688464 0.013942826732796626 0.02619787491091772 44.603216804209275 12.459476951973418 0.026860892707066222 -0.0008217132485407405 -0.007770871813429386 -0.01826427279052294 -0.025064433724860873 -0.02730979419999223 -0.009835755873907507 -0.014238644245087797 11.100004404330862 -0.028133791248374267 -0.0030977644491167106 -0.0018124567125101154 -0.00296513621973726 0.037712338345287026 -0.007603926250726154 0.04765645495400533 -0.019689394062421543 4.73106847106368 -0.017812301167672368 0.005451305329866916 0.020258014286411972 0.016829039210244038 0.012925522514318237 -0.01577226716928851 0.036476599877620274 0.020804409686809296 -5.638587841141117 -0.03480562620377077 -0.007953355301793901 -6.761616593598482 -0.0016798819463713323 -0.012212140863015109 -6.691930120247157 -0.04295648656952811 0.004756324055475867 -0.04590243935233514 -0.019324268171891805 0.008568505759363616 8.087066578026734 3.530763393446694 -19.233963345231356 0.009112799482278857 10.36069986275639 0.048335856136538 -5.591979025700656 -15.66439698527308 3.159934779627746 0.001153047735576779 0.006964387360266164 0.00700765294589495 -0.01705472086158252 4.720423794260804 0.01090441201920498 12.4615214391398 -8.210356103934249 6.904924406445798 0.011175767364003778 46.34395316539957 0.008273670625816736 -4.333110612333309 -14.7167963595274 -3.8505243125812005 -0.01029407794522645 0.032362138131179184 0.022623775940972646 0.01730222301408903 -10.719009506014897 0.006983157317007494 
-0.04720362403014462 -0.031480365096899686 -0.02997184707732499 0.003369000269646281 0.030655186439286743 0.003768199930014784 -1.961122178657019 1.2416097407122193 -0.9939369222775422 -0.8741286846586269 3.7381085463734514 0.35367729375450735 -1.140671503257018 -1.4901444298748094 -1.0551459320021563 0.5153910593071526 0.2757706932266274 -0.8008897548644714 0.4587566444289377 11.18290990301727 -1.8525889403381128 0.38835244400665064 -1.024386168639778 -5.397531087100316 1.080897675341541 -16.56984697879089 -0.5171014130297721 -2.9580349684504537 1.2537535188265732 -15.259372795408469 73.37306693341138 19.29825605736552 0.5954736734345252 1.7174472271089491 5.657816086659982 44.63503874175506 21.618258104317164 -0.07193739118066309 -4.181964456397237 4.502258685954893 -0.12377572806518312 -1.5608156952528016 -0.011936447623642515 0.029450538043937175 -56.211393474924904 0.00689256087279013 0.03549416827329429 -56.229048870240035 -38.78187916665875 0.025230246903311833 -0.02475637150242223 -0.010289136165516683 0.024811195473793114 0.044199668158891404 0.03085436334826551 0.005954601783189793 -0.049113189954328874 -36.663439669211265 0.02930991015373946 -0.04505022597407521 0.048863227479098104 -0.01827154380406935 0.0426008087591122 0.005132891507963549 -0.023355872479378665 -0.04482935591327793 -19.732346818717573 0.02703341365765545 -0.024659302834556956 -0.031162018052360217 -0.01206813029529805 0.0016704819708261408 -0.02028453818549236 -0.016089868319315415 0.01148199944447994 24.020145643168235 0.023092896859420783 0.013101899031113131 28.874822303210294 -0.004011680071217605 -0.02546878509001891 28.82475429483224 0.0419835604271582 0.023439353783567384 3.174483888358355 0.9744661294148935 12.992274507427407 -69.30770577195062 28.638283230061727 -5.510187505928268 3.2628242689722535 -7.500409048870526 -49.063436737761755 -12.47382714393764 2.367789367105695 -0.13679683404476956 -0.4985351202559569 0.11071017497851418 -8.117980109673734 -0.011847287962140473 -0.017846258229613582 44.57179707993465 -0.028205793602885526 0.0037538370405565155 44.540467121377816 12.48484188789593 0.005001236965082323 -0.003689893236888698 -0.030989983160901742 -0.04628867001032435 0.011898715179000369 0.043655178133009516 0.021724165682453122 0.028624353091296142 11.10103346693865 0.014420894298185903 0.015883987336024176 -0.015605708856702883 -0.008823303939866614 0.01737279354103428 -0.021444802219894935 0.026811727454680818 0.025648212847672793 4.8200881135426155 0.0041596906944965 0.04136358132377433 -0.005001672841516679 -0.02034232622526134 0.0018938007423009674 -0.01121483705864514 0.01954530241674147 -0.012384893357771098 -5.5757881802152225 0.004262590187216787 -0.04137972552846679 -6.756165104490255 -0.024606161045214677 -0.039223222467797275 -6.760757191052085 -0.044089853589241244 0.030765395628286167 -0.0075472912267725185 -0.0025429196339305776 0.03970319994769462 8.025559976723642 3.496932937205171 -19.21355248726774 0.014605364072255538 10.369812051420768 -0.01202154036643013 -5.651618061364053 -15.631844351901448 3.186206224189617 0.0038281365033862335 0.005373242244706934 -0.005042043612741222 -0.04930191635805966 4.652620578046058 0.02416447224151372 12.425772605679724 -8.2121958438021 6.860724198521422 0.0365181676103947 46.3380794077255 0.035471974706268956 -4.286708384724502 -14.710742803582589 -3.7931017418156063 -0.03183266732278992 -0.007762525436889065 0.017281330359367523 -0.02717317961512237 -10.718349034962051 0.03450359852293282 
0.04273500713397718 -0.03525302060560372 0.02281739812528516 -0.02748513544156185 0.02517342814870431 -0.006878482765176709 -1.991120916255946 1.4050893853905229 -1.0114062451870676 -0.8971050804123487 3.730621003319248 0.4135618680796446 -1.1069218564595977 -1.4316068003340927 -0.9578490873691464 0.40868791387909387 0.25806586079744875 -0.7906010750815744 0.3540819895516378 11.121387995025554 -1.5206256246039618 0.29748129447767685 -1.0954772897288392 -4.820302382111507 0.9948624865555588 -16.66715833910764 -0.38797684760799456 -2.7983742317578777 1.221267077379976 -15.077909663249345 73.41663544822879 18.770623155277615 0.7176949171017757 1.7611511666048858 5.898343743591991 44.81922290297622 21.745690309938507 -0.08045919303462011 -4.134792645283746 4.5561784579999065 -0.09344260955179236 -1.5760361876978062 0.01631506717302533 -0.03760569537698024 -56.28271141718302 0.027161058963644687 -0.03403992712851771 -56.22961486370557 -38.75303236241139 0.037395009879323406 0.010062604468688422 0.005506582372261699 -0.04090565945222325 -0.010200527481536206 -0.028604640911812043 -0.03520318034771995 0.04427718369878756 -36.690664582909754 -0.01180776538673316 0.04241518698914891 -0.004306934369204931 -0.010452669729926362 -0.04756684613864947 0.004958903185482385 0.01697375134934514 0.04362682916381204 -19.7229727885551 0.005408338979229441 -0.018666963993135884 -0.03982945113302066 0.03603102554161435 -0.02327017533411174 -0.04005424080478846 -0.005060951009592297 -0.013661894625254913 24.053936506665984 -0.03631290251084208 -0.04294475622611637 28.90113675681161 0.02370769279974329 -0.035999021605460764 28.887133121420813 0.021437651653521066 -0.015051131766233477 3.2717641749737805 1.04742635420212 12.996364183004147 -69.2376832225119 28.35838231280522 -5.946549527827387 3.072235515594489 -7.063806517275783 -49.50423063650568 -12.735597155067639 2.3834645327290014 -0.18262626990741293 -0.4550881676848427 0.062546605487795 -8.112917284389662 0.024763945545311482 -0.01839073117582484 44.61242673965267 0.028683645158334728 -0.0007823510937185576 44.55561909232675 12.433491467366867 -0.025053407856469898 -0.014576680046617304 -0.010297583925483193 0.02978220962975759 0.028179004973946764 0.027927805640138394 -0.035679252921188856 -0.01858885346390323 11.102981669127225 -0.031598159433440326 -0.004135505164777092 0.048210497172503204 0.008200815034958503 0.0486460211632409 0.0003586836310364709 -0.010101109488959556 -0.04004859492953107 4.789484577542686 0.036855950291298185 0.036011574977214994 0.0015065476550827198 0.0058855342733775415 0.024733216629787995 -0.016425933672618437 0.02379582020304386 0.024697810935819985 -5.600603690586468 0.04574801210837421 0.007642296449965932 -6.685855835495168 0.0022380131571640488 0.04965375090996421 -6.698977761849644 0.045763715222483035 -0.03329317829846139 -0.025386479340535586 0.013417772848452494 -0.028319935441426105 8.026554493588705 3.529585566232882 -19.210144575804108 -0.03630386997729673 10.396145838859539 0.0031055116459779066 -5.641058484511394 -15.654450923011774 3.1957307968850928 -0.031193986191811022 0.045246074394314065 0.006122728988735236 -0.005685338133103228 4.666318448721616 -0.0319999776304392 12.431076149462031 -8.219279278270786 6.851296774549456 0.03360860219786503 46.33421447746888 0.022744658399954765 -4.3119633198597835 -14.782304252370103 -3.862015871343666 -0.001102375870634844 0.04770739949970411 0.030895462218107683 0.0037836445028977977 -10.745589700096925 -0.02720034357409116 
0.007957863291679306 -0.009538735540674033 -0.03217108286171399 -0.0030746596163015237 -0.024784500042360748 0.025826267006284077 -1.89669135369604 1.6549154947881992 -0.9805768324488098 -0.9455818324876808 3.689911835297775 0.40335849817646185 -1.1083614064724117 -1.3175101498362851 -0.8496923992280164 0.29300189521368103 0.2384235594660541 -0.7935825377499971 0.24920750497321761 10.943605237550809 -1.3683666809205546 0.2927501583192607 -1.0925348327075015 -4.497291234836271 0.887553624156232 -16.610420633398974 -0.42748376842982283 -2.666237707374345 1.2074831714880694 -14.909624941804369 73.31552713050382 18.06635126748123 1.0399979077870247 1.629485127149905 6.146318259822784 45.367969038064444 21.65797892844341 -0.10188220665734313 -4.088223992777778 4.54934941079392 -0.14764500097666305 -1.5949099490051717 -0.024978809485118644 -0.001141301479468757 -56.233595999388136 7.684654447151586e-05 -0.0240482059636197 -56.26874592272086 -38.7770497113831 -0.008303426900237299 -0.01182206811703694 -0.039692353331328964 0.0441017504518053 -0.017746532285658836 0.028848219632804192 0.037375135466519285 0.02199896324093341 -36.721376651694236 -0.029953372142624293 -0.011063663075558743 -0.024883694670801964 0.04623350033176683 -0.026558052282134696 0.03581706427154677 0.0364455268319692 0.007327050873810247 -19.738213895119664 -0.031524697493559996 0.020669880441690967 -0.01107121799920364 -0.010924542279494508 -0.032965320214847056 -0.03647462674853063 0.046182952232219285 -0.02719586976251396 24.074250037645236 0.014254853449289716 -0.017317991951997094 28.863472722608602 -0.030011324998677303 -0.012163812818571254 28.90553912313034 -0.03364478641335412 -0.026926216225479027 3.12945314410545 0.9563016136524893 12.926238354690419 -69.05863777375048 28.00994243848823 -6.448660096470795 3.1284485218961353 -6.588186949301451 -50.153037699714936 -12.946037962815906 2.337002375388542 -0.25241667128923756 -0.5171814820358516 0.09531967585652255 -8.085771684465625 0.0007226487676747536 -0.01383531519015562 44.53653922065727 -0.025657383816159136 -0.010709948668213728 44.5666213076874 12.452434654995978 0.03221168294723561 0.04619017058846951 0.008187467906642485 0.004701869457625484 0.014415579454106547 -0.029509041835737063 -0.04405107003387048 0.003032364223611034 11.139746693345453 -0.0043100539952960135 -0.006368560863369843 -0.006849925715272664 -0.003190733496819608 0.033460109962462375 -0.040582882680377415 -0.0367531264639947 0.03298373603701592 4.808670691194621 -0.034023932220243955 0.0336153597163787 -0.019152085357293375 0.04615384139293374 -0.03198463032911062 0.035147365467372745 0.025068854218092584 0.009276586835496042 -5.604911325867895 -0.021704209343014886 0.030441070941310173 -6.682689853780685 0.022709016838193572 0.02191086653510118 -6.7106246562537795 -0.03902368852381576 -0.022200357832490494 -0.046409187375045576 0.03208105365391154 0.016406192042254998 8.065871191568377 3.5249017066889623 -19.268705021933926 -0.008849574687750529 10.44146257934482 0.02431707024109968 -5.670839059739198 -15.624608144264077 3.159376972732843 -0.025075245592317528 -0.01409155698813822 0.004449071005048515 -0.01669787744595702 4.65247844083046 -0.013349610275469413 12.436389070979512 -8.251936271150473 6.860465628036078 -0.04450160250552279 46.42080067709166 -0.01999714640468679 -4.281027037159281 -14.74615906246443 -3.7854604834503403 0.02834156486104831 -0.01661409747987784 -0.02558398054420398 -0.02857132381705993 -10.752853965791347 -0.022727608110189493 
